Coordinates
version=1
nRows=11
nColumns=40
inDegrees=yes

Units are S.I. units (second, meters, Newtons, ...)
Angles are in degrees.

endheader
time	pelvis_tilt	pelvis_list	pelvis_rotation	pelvis_tx	pelvis_ty	pelvis_tz	hip_flexion_r	hip_adduction_r	hip_rotation_r	knee_angle_r	knee_angle_r_beta	ankle_angle_r	subtalar_angle_r	mtp_angle_r	hip_flexion_l	hip_adduction_l	hip_rotation_l	knee_angle_l	knee_angle_l_beta	ankle_angle_l	subtalar_angle_l	mtp_angle_l	lumbar_extension	lumbar_bending	lumbar_rotation	arm_flex_r	arm_add_r	arm_rot_r	elbow_flex_r	pro_sup_r	wrist_flex_r	wrist_dev_r	arm_flex_l	arm_add_l	arm_rot_l	elbow_flex_l	pro_sup_l	wrist_flex_l	wrist_dev_l
      1.72500000	     -5.07893709	     -6.48250026	     -3.77472422	     -0.37639753	      0.92659398	      0.25292498	     32.29547852	     10.08902016	    -10.06916276	     40.73111635	     40.73111635	     12.17526118	      0.00000000	      0.00000000	      1.29830526	    -17.02567636	     -6.58664560	     88.50418960	     88.50418960	     -3.57096788	      0.00000000	      0.00000000	    -17.72041925	     11.11146065	      1.95723095	    -13.61093178	    -29.27982845	     -0.69034001	    105.21385377	     46.26126104	      0.00000000	      0.00000000	    -12.91740169	    -25.20320747	      9.11183724	    107.41886465	     47.70026918	      0.00000000	      0.00000000
      1.73000000	     -5.08480252	     -6.40071247	     -3.97758709	     -0.35387874	      0.92563012	      0.25267474	     31.41687730	      9.95121793	     -9.81085049	     42.34939949	     42.34939949	     14.39570991	      0.00000000	      0.00000000	      3.49209644	    -17.03655530	     -6.40267264	     90.34936290	     90.34936290	     -3.04637993	      0.00000000	      0.00000000	    -17.76359559	     11.00207918	      2.82367110	    -12.41393664	    -29.21561805	     -0.16749437	    104.86450518	     46.23504539	      0.00000000	      0.00000000	    -12.89210467	    -24.18996026	      9.09505391	    105.17975517	     47.50515188	      0.00000000	      0.00000000
      1.73500000	     -5.09923955	     -6.23621503	     -4.10781296	     -0.33115739	      0.92521505	      0.25218828	     30.32610645	      9.72821699	     -9.50186433	     43.53249236	     43.53249236	     16.41194183	      0.00000000	      0.00000000	      5.74368127	    -16.84693898	     -6.10140198	     91.89178079	     91.89178079	     -2.66098450	      0.00000000	      0.00000000	    -17.77793000	     10.83819841	      3.53970339	    -11.30121272	    -29.11125245	      0.33309767	    104.69929613	     46.22234321	      0.00000000	      0.00000000	    -13.03955536	    -23.28342763	      9.01606612	    103.18542168	     47.32330330	      0.00000000	      0.00000000
      1.74000000	     -5.12092250	     -6.00726510	     -4.19748424	     -0.30825244	      0.92531694	      0.25168572	     29.04615905	      9.47499407	     -9.10045266	     44.31383463	     44.31383463	     18.26366935	      0.00000000	      0.00000000	      8.01627665	    -16.50903152	     -5.75939059	     93.12519096	     93.12519096	     -2.40927874	      0.00000000	      0.00000000	    -17.89783658	     10.58208837	      4.30842135	    -10.64490684	    -28.93228079	      0.41446508	    105.01844087	     46.24370419	      0.00000000	      0.00000000	    -13.60535351	    -22.96253719	      9.18920931	    102.38341802	     47.26583281	      0.00000000	      0.00000000
      1.74500000	     -5.14355136	     -5.74334912	     -4.18711512	     -0.28517300	      0.92587369	      0.25112806	     27.62284887	      9.17173896	     -8.70260409	     44.79030853	     44.79030853	     19.75177237	      0.00000000	      0.00000000	     10.31916425	    -16.04870430	     -5.31817277	     94.07561966	     94.07561966	     -2.27189809	      0.00000000	      0.00000000	    -17.72385192	     10.32871040	      4.88135614	     -9.72128880	    -28.70496701	      0.87338205	    105.10069818	     46.25767353	      0.00000000	      0.00000000	    -13.51953030	    -21.69106302	      8.78029329	     99.88439660	     47.04555839	      0.00000000	      0.00000000
      1.75000000	     -5.15807540	     -5.48411279	     -4.13147155	     -0.26194454	      0.92684590	      0.25076302	     26.04854885	      8.91343740	     -8.23437034	     44.95898392	     44.95898392	     21.02963705	      0.00000000	      0.00000000	     12.59551579	    -15.55714514	     -4.87100291	     94.74640273	     94.74640273	     -2.23669636	      0.00000000	      0.00000000	    -17.66856424	     10.03600533	      5.43498338	     -9.07215695	    -28.36830843	      1.08695025	    105.56439844	     46.29559449	      0.00000000	      0.00000000	    -14.02079896	    -21.31015569	      8.73286693	     98.89725871	     46.96442503	      0.00000000	      0.00000000
      1.75500000	     -5.17437888	     -5.22182513	     -4.04268503	     -0.23861036	      0.92812913	      0.25064834	     24.37901472	      8.69114024	     -7.68533237	     44.90534143	     44.90534143	     22.01637119	      0.00000000	      0.00000000	     14.84754142	    -15.03962885	     -4.43498594	     95.16305480	     95.16305480	     -2.28319256	      0.00000000	      0.00000000	    -17.55929392	      9.68096122	      6.01372210	     -8.53247686	    -28.07997579	      1.25652430	    106.07175564	     46.33683807	      0.00000000	      0.00000000	    -14.55246480	    -20.93006232	      8.65196172	     98.15464672	     46.90254885	      0.00000000	      0.00000000
      1.76000000	     -5.16473514	     -4.98868966	     -3.91918939	     -0.21515206	      0.92972735	      0.25081522	     22.59101350	      8.52813636	     -7.08557147	     44.64675310	     44.64675310	     22.66858838	      0.00000000	      0.00000000	     17.02379910	    -14.54069204	     -4.01077167	     95.32603185	     95.32603185	     -2.39222574	      0.00000000	      0.00000000	    -17.39902688	      9.29675814	      6.75957649	     -8.14455896	    -27.90948784	      1.34962355	    106.39864714	     46.36216445	      0.00000000	      0.00000000	    -15.04901730	    -20.83730348	      8.70529607	     97.89744282	     46.88578702	      0.00000000	      0.00000000
      1.76500000	     -5.15874676	     -4.77469718	     -3.78550519	     -0.19162894	      0.93151206	      0.25130748	     20.74444837	      8.42858256	     -6.38624768	     44.22836399	     44.22836399	     23.04946080	      0.00000000	      0.00000000	     19.15452034	    -14.07445258	     -3.63310228	     95.26519427	     95.26519427	     -2.58813538	      0.00000000	      0.00000000	    -17.23468513	      8.90503983	      7.29773805	     -7.67456338	    -27.47788037	      1.47061759	    107.20903480	     46.42488827	      0.00000000	      0.00000000	    -15.74345461	    -20.71928754	      8.69582819	     97.59870956	     46.86434896	      0.00000000	      0.00000000
      1.77000000	     -5.14394107	     -4.58941861	     -3.62356288	     -0.16802752	      0.93347061	      0.25205794	     18.83919533	      8.37113916	     -5.66105900	     43.67588014	     43.67588014	     23.05677300	      0.00000000	      0.00000000	     21.22215875	    -13.63237176	     -3.26129507	     94.99836445	     94.99836445	     -2.80164659	      0.00000000	      0.00000000	    -17.24197431	      8.46473824	      7.83678589	     -7.56302788	    -27.13368121	      1.47410632	    108.52578396	     46.52602023	      0.00000000	      0.00000000	    -17.00697392	    -20.59606102	      7.97041193	     98.42015144	     46.90801033	      0.00000000	      0.00000000
      1.77500000	     -5.09114810	     -4.42002103	     -3.46246161	     -0.14431374	      0.93565826	      0.25309607	     16.84550497	      8.35229387	     -4.87602332	     42.99057908	     42.99057908	     22.72714947	      0.00000000	      0.00000000	     23.15979083	    -13.21698093	     -2.94317123	     94.49682910	     94.49682910	     -3.05339882	      0.00000000	      0.00000000	    -17.02288254	      8.01676420	      8.52267506	     -7.15988312	    -26.78405332	      1.61332814	    109.19866970	     46.57890210	      0.00000000	      0.00000000	    -17.68971773	    -20.77410812	      7.91780407	     98.67958504	     46.93024828	      0.00000000	      0.00000000
